<svg id="Layer_1" data-name="Layer 1" xmlns="http://www.w3.org/2000/svg" viewBox="0 0 1486.6 435.6"><defs><style>.cls-1{fill:#2f79fe;}.cls-2{fill:#fe4855;}</style></defs><title>Artboard 1</title><path class="cls-1" d="M86.2,88.5V347.2H344.8V88.5ZM326.1,328.4H247.7V306.1h32.1A22.1,22.1,0,0,0,302,283.9V227.8H229.7V328.4H200.4V227.8H128.1v56.1a22.1,22.1,0,0,0,22.1,22.2h32.2v22.3H104.2V106.5h78.2v23.3H150.2a22.1,22.1,0,0,0-22.1,22.1v56.2h72.3V106.5h29.3V208.1H302V151.9a22.1,22.1,0,0,0-22.2-22.1H247.7V106.5h78.4ZM249,287.6V246.3h33.7v41.3Zm-66.6,0H148.7V246.3h33.7Zm0-139.8v41.4H148.7V147.8ZM249,189.2V147.8h33.7v41.4Z"/><path class="cls-1" d="M458.6,118h33.5c26,0,43.4,17.8,43.4,45.5s-17,47.5-43.9,47.5h-33Zm13.7,81.5h18.4c20.8,0,30.6-15.3,30.6-35.8,0-17.7-9-34.1-30.6-34.1H472.3Z"/><path class="cls-1" d="M557.7,112.8h0a6.5,6.5,0,0,1,6.5,6.5v2.1a6.5,6.5,0,0,1-6.5,6.5h0a6.5,6.5,0,0,1-6.5-6.5v-2.1A6.5,6.5,0,0,1,557.7,112.8Zm-6.5,30h13V211h-13Z"/><path class="cls-1" d="M632.6,195.6a115.6,115.6,0,0,0,.9,15.4H621.1c-.6-1.5-1-4.8-1.1-8.5-2.4,4.4-7.6,10.1-20.4,10.1-15.9,0-22.7-10.5-22.7-20.9,0-15.3,11.9-22.3,31.8-22.3h11.1v-5.5c0-5.8-1.8-12.6-13.7-12.6s-12.4,5.2-13.5,10.4H580.1c.9-9.9,6.9-20.5,26.5-20.5,16.7.1,26,6.9,26,22.6Zm-12.7-17.4H609.7c-13,0-19.6,3.7-19.6,12.7,0,6.7,4.4,11.7,12.4,11.7,15.4,0,17.4-10.6,17.4-22.3Z"/><path class="cls-1" d="M650.6,160.4c0-5.9,0-12-.2-17.6h12.5c.2,2,.5,6.8.5,10.1,3.2-5.9,8.9-11.7,19.4-11.7s15.9,5,18.4,11.9c3.7-6.3,9.9-11.9,21.3-11.9s21.2,6.7,21.2,25V211H731V167.8c0-7.6-2.7-15.5-12.7-15.5s-14.7,7.8-14.7,19.6V211H690.8V168.3c0-8.5-2.3-15.9-12.3-15.9s-15.1,8.1-15.1,20.8V211H650.6Z"/><path class="cls-1" d="M820.4,176.8c0,19.8-11.3,35.8-32,35.8S757,197.5,757,177s11.7-35.8,32.2-35.8C808,141.2,820.4,155.4,820.4,176.8Zm-50,.1c0,14.6,7,24.9,18.4,24.9s18.3-9.8,18.3-24.8-6.6-25-18.5-25S770.4,161.6,770.4,176.9Z"/><path class="cls-1" d="M833.7,160c0-5.9,0-11.9-.1-17.2h12.6c.3,2,.5,8.7.5,10.7,2.6-5.5,8.1-12.3,20.8-12.3s22.5,8.1,22.5,26.1V211H877V168.9c0-9.8-3.7-16.5-13.6-16.5-11.7,0-16.7,8.8-16.7,22.1V211h-13Z"/><path class="cls-1" d="M964.8,112.8v79.1c0,6.3,0,12.6.1,19.1H952.5c-.3-1.8-.6-6.7-.7-9.2-3.3,6.8-9.9,10.8-20.7,10.8-17.2,0-27.9-14.1-27.9-35s11.5-36.4,30.2-36.4c11.4,0,16.7,4.6,18.4,8.3V112.8Zm-48.2,64.4c0,15.9,7.2,24.4,17.5,24.4,15.2,0,18.3-11.5,18.3-25.5s-2.9-23.9-17.4-23.9C923.5,152.2,916.6,161.4,916.6,177.2Z"/><path class="cls-1" d="M1016.7,118h36.2c19.9,0,28.8,10.6,28.8,23.3,0,10.8-6,17.8-12.9,20.3a22.7,22.7,0,0,1,15.8,22.1c0,17.2-13,27.3-30.8,27.3h-37.1Zm33.8,38.3c12.6,0,17.5-5.1,17.5-13.7s-5.6-13.4-15.8-13.4h-22.1v27.1Zm-20.4,43.5h21.8c11.3,0,18.7-5.3,18.7-16.3s-6.1-16-20.7-16h-19.8Z"/><path class="cls-1" d="M1098.6,161.3c0-9,0-14.4-.1-18.5h12.7c.2,1.9.4,7.5.4,13.6,3.4-9,11.3-14.9,22.5-15.2v13c-13.8.2-22.5,6.8-22.5,24.4V211h-13Z"/><path class="cls-1" d="M1193.8,195.6a115.6,115.6,0,0,0,.9,15.4h-12.4a36.1,36.1,0,0,1-1-8.5c-2.4,4.4-7.6,10.1-20.4,10.1-16,0-22.7-10.5-22.7-20.9,0-15.3,11.9-22.3,31.8-22.3h11.1v-5.5c0-5.8-1.9-12.6-13.7-12.6s-12.4,5.2-13.6,10.4h-12.5c.9-9.9,7-20.5,26.5-20.5,16.8.1,26,6.9,26,22.6Zm-12.6-17.4h-10.3c-13,0-19.6,3.7-19.6,12.7,0,6.7,4.5,11.7,12.5,11.7,15.3,0,17.4-10.6,17.4-22.3Z"/><path class="cls-1" d="M1265.8,189.9c-2.8,11.7-10.6,22.7-28.3,22.7s-30.3-13.7-30.3-35.3c0-19.4,11-36.1,31.2-36.1s26.6,14.5,27.4,23.1H1253c-1.6-6.7-5.6-12.3-14.9-12.3-11.2,0-17.6,9.8-17.6,24.9s6.3,25,17.3,25c8,0,12.6-4.4,15.1-12Z"/><path class="cls-1" d="M1287.2,179.4c0,12.9,6.4,22.4,17.4,22.4s13.3-5.1,15.4-9.9h13c-2.6,8.7-9.8,20.7-28.8,20.7-21.3,0-30.1-17.3-30.1-34.9,0-20.5,10.2-36.5,30.8-36.5s29.3,17.5,29.3,32.6a49.7,49.7,0,0,1-.2,5.6Zm33.8-8.9c-.1-10.6-5.2-19.1-16.2-19.1s-16.1,7.9-17.2,19.1Z"/><path class="cls-1" d="M1355.4,191.3c1.8,7.1,7,11.2,15.7,11.2s12.9-4,12.9-9.8-3-8.7-15.2-11.7c-19.8-4.9-23.7-11-23.7-20.3s7-19.5,24.9-19.5,25,10.4,25.8,19.9h-12.5c-.9-4.1-3.9-9.9-13.9-9.9s-11.4,4.2-11.4,8.4,2.6,7.1,14.6,10c20.8,5,24.7,12.1,24.7,22.2,0,11.8-9.1,20.8-26.6,20.8s-26.5-9.1-28.2-21.3Z"/><path class="cls-2" d="M703.2,300.1l-5.7,16.1h-8.2L709,260.4h10.2l20.6,55.8H731l-5.9-16.1Zm19.9-7c-5.1-14.1-7.9-21.8-9.2-26.2h0c-1.4,4.9-4.6,14.2-8.7,26.2Z"/><path class="cls-2" d="M746.3,316.2v-59h7.9v59Z"/><path class="cls-2" d="M765.1,257.2H773v9.1h-7.9Zm0,18.1H773v40.9h-7.9Z"/><path class="cls-2" d="M818.3,312.2c0,13.1-5.3,20.7-19.1,20.7s-16.5-7.2-17.2-12.5h8c1.2,4.1,4.5,6.4,9.6,6.4,8.9,0,11-5.6,11-14.8v-3c-2.2,4.4-5.9,6.9-12.5,6.9-10.2,0-17-8.3-17-20.1s7.8-21.5,17.7-21.5c7.7,0,10.9,3.6,11.8,6.1.1-1.7.3-4.3.3-5.1h7.5c0,2.6-.1,7.8-.1,11.7Zm-29-16.8c0,8.4,4.3,13.9,10.7,13.9,8.4,0,10.8-5.7,10.8-14.4s-2.2-14-10.6-14S789.3,286.7,789.3,295.4Z"/><path class="cls-2" d="M829.2,285.6c0-3.6,0-7.2-.1-10.3h7.7c.2,1.1.3,5.1.3,6.4,1.5-3.3,4.9-7.4,12.6-7.4s13.7,4.8,13.7,15.6v26.3h-7.9V290.9c0-5.9-2.2-9.9-8.2-9.9s-10.2,5.3-10.2,13.3v21.9h-7.9Z"/><path class="cls-2" d="M904.3,316.2l-14.9-55.8h8.8c4.5,19.6,9.9,40.5,10.8,46.8h.1c1.6-7.8,8.8-32.7,12.4-46.8h7.9c3.2,12.1,10.5,39.2,11.8,46.5h.1c1.8-10.2,9.2-35.6,12-46.5h8.2l-16.1,55.8h-8.8c-3.3-12.8-10-37.8-11.5-45H925c-1.7,8.6-8.5,32.4-12,45Z"/><path class="cls-2" d="M967.3,257.2h7.9v9.1h-7.9Zm0,18.1h7.9v40.9h-7.9Z"/><path class="cls-2" d="M981.4,275.3h7V263.4h7.9v11.9h8.8v6.3h-8.8v23.2c0,3.8.9,5.7,4.6,5.7a19.3,19.3,0,0,0,3.3-.3V316a22.5,22.5,0,0,1-6.4.7c-6.7,0-9.4-3.5-9.4-10.3V281.6h-7Z"/><path class="cls-2" d="M1019.4,257.2v23.9c2-3.5,5.7-6.8,12.6-6.8s13.7,3.8,13.7,15.7v26.2h-7.8V291.3c0-6.6-2.8-10.3-8.5-10.3s-10,4.8-10,12.9v22.3h-7.9v-59Z"/><path class="cls-2" d="M1085.2,260.4v33.5c0,12.7,6.9,16.2,13.8,16.2s13.7-3.8,13.7-16.2V260.4h8.3v33c0,18.3-10.2,23.5-22.1,23.5s-22.1-5.5-22.1-23V260.4Z"/><path class="cls-2" d="M1135.7,304.3c1.1,4.3,4.3,6.7,9.6,6.7s7.8-2.3,7.8-5.8-1.8-5.2-9.3-7c-12-3-14.4-6.6-14.4-12.2s4.3-11.7,15.2-11.7,15.2,6.2,15.6,11.9h-7.5c-.6-2.4-2.4-6-8.5-6s-6.9,2.6-6.9,5.1,1.6,4.3,8.9,6c12.6,3,15,7.3,15,13.3s-5.6,12.5-16.2,12.5-16.1-5.5-17.1-12.8Z"/><polygon class="cls-2" points="461.6 293.1 673.8 287.6 673.8 300.3 461.6 293.1"/><polygon class="cls-2" points="1400.5 292.4 1188.3 297.9 1188.3 285.2 1400.5 292.4"/></svg>