<svg xmlns="http://www.w3.org/2000/svg" width="24" height="20"><path d="M 20.271 0.03 L 3.729 0.03 C 2.802 0.03 1.912 0.386 1.257 1.02 C 0.602 1.654 0.234 2.513 0.235 3.409 L 0.235 12.3 C 0.233 13.196 0.601 14.056 1.256 14.691 C 1.912 15.325 2.801 15.682 3.729 15.682 L 4.941 15.682 L 4.941 18.636 C 4.941 20.039 5.814 20.407 6.88 19.455 L 11.101 15.682 L 20.278 15.682 C 21.204 15.68 22.092 15.323 22.746 14.688 C 23.4 14.054 23.767 13.195 23.765 12.3 L 23.765 3.409 C 23.766 2.513 23.398 1.654 22.743 1.02 C 22.088 0.386 21.198 0.03 20.271 0.03 Z" fill="rgb(39, 117, 255)"></path></svg>