<svg xmlns="http://www.w3.org/2000/svg" width="16" height="20"><path d="M 13.806 11.741 C 13.84 11.693 17.114 6.968 15.181 3.282 C 12.874 -1.123 8.914 0.275 7.916 0.718 C 8.44 0.945 9.823 1.652 10.259 2.964 C 10.269 2.992 10.268 3.023 10.256 3.051 C 10.244 3.078 10.222 3.099 10.196 3.109 C 10.184 3.111 10.172 3.111 10.16 3.109 C 10.116 3.109 10.076 3.079 10.061 3.034 C 10.038 2.964 10.008 2.898 9.981 2.832 C 9.535 1.811 8.446 1.205 7.928 0.966 C 7.836 0.92 7.741 0.88 7.644 0.845 C 4.276 -0.352 1.636 0.845 0.566 4.027 C -0.863 8.291 2.436 11.645 2.461 11.68 C 2.482 11.699 2.494 11.727 2.495 11.757 C 2.495 11.757 2.531 12.55 2.956 16.134 C 3.179 18.005 4.118 19.357 4.933 19.723 C 5.147 19.85 5.408 19.844 5.617 19.707 C 5.846 19.516 5.933 19.075 5.859 18.464 C 5.611 16.432 6.084 14.18 6.985 13.107 C 7.266 12.739 7.679 12.518 8.12 12.5 L 8.162 12.5 C 10.2 12.577 10.198 15.141 10.194 17.202 C 10.194 18.593 10.194 19.795 10.783 19.825 C 11.204 19.848 11.625 19.598 12.065 19.089 C 13.177 17.795 14.124 14.882 13.785 11.816 C 13.784 11.789 13.791 11.763 13.806 11.741 Z M 5.12 1.95 L 5.023 1.95 C 4.499 1.977 2.017 2.298 1.806 5.877 L 1.806 6.023 C 1.807 6.056 1.793 6.088 1.77 6.11 C 1.746 6.132 1.715 6.142 1.684 6.136 C 1.626 6.132 1.582 6.079 1.583 6.016 C 1.76 1.725 5.082 1.73 5.118 1.725 C 5.176 1.725 5.223 1.776 5.223 1.839 C 5.223 1.901 5.176 1.952 5.118 1.952 Z" fill="rgb(39, 117, 255)"></path></svg>