<svg xmlns="http://www.w3.org/2000/svg" width="21" height="20"><path d="M 20.391 17.851 C 19.799 16.544 16.91 15.68 14.99 14.868 C 13.07 14.057 13.333 13.564 13.264 12.891 C 13.254 12.794 13.248 12.697 13.244 12.6 C 13.903 12.042 14.442 11.277 14.791 10.394 C 14.791 10.394 14.809 10.349 14.814 10.336 C 14.888 10.144 14.953 9.944 15.009 9.74 C 15.449 9.655 15.706 9.196 15.804 8.772 C 15.903 8.6 16.108 8.177 16.061 7.697 C 16 7.079 15.74 6.794 15.448 6.674 L 15.448 6.567 C 15.448 5.78 15.372 4.648 15.221 3.904 C 15.188 3.696 15.14 3.491 15.078 3.289 C 14.794 2.378 14.201 1.559 13.409 0.982 C 12.591 0.388 11.435 0.074 10.407 0.074 C 9.38 0.074 8.223 0.388 7.406 0.982 C 6.613 1.559 6.02 2.378 5.737 3.289 C 5.674 3.491 5.626 3.696 5.593 3.904 C 5.443 4.648 5.366 5.78 5.366 6.567 L 5.367 6.666 C 5.066 6.78 4.794 7.064 4.731 7.697 C 4.684 8.177 4.89 8.6 4.989 8.772 C 5.088 9.203 5.352 9.67 5.806 9.744 C 5.863 9.949 5.929 10.15 6.004 10.343 C 6.008 10.356 6.013 10.368 6.018 10.381 L 6.025 10.398 C 6.381 11.296 6.934 12.072 7.609 12.631 C 7.605 12.721 7.599 12.808 7.591 12.891 C 7.522 13.564 7.723 14.056 5.804 14.868 C 3.884 15.679 0.995 16.544 0.403 17.85 C -0.189 19.157 0.047 19.926 0.047 19.926 L 20.745 19.926 C 20.744 19.926 20.983 19.157 20.391 17.851 Z" fill="rgb(39, 117, 255)"></path></svg>