<svg xmlns="http://www.w3.org/2000/svg" width="20" height="20"><path d="M 14.291 4.291 C 14.731 4.291 15.089 3.934 15.089 3.493 L 15.089 0.869 C 15.089 0.428 14.731 0.071 14.291 0.071 C 13.85 0.071 13.493 0.428 13.493 0.869 L 13.493 3.493 C 13.493 3.934 13.85 4.291 14.291 4.291 Z M 5.709 4.291 C 6.15 4.291 6.507 3.934 6.507 3.493 L 6.507 0.869 C 6.507 0.428 6.15 0.071 5.709 0.071 C 5.269 0.071 4.911 0.428 4.911 0.869 L 4.911 3.493 C 4.911 3.934 5.269 4.291 5.709 4.291 Z M 18.901 2.021 L 16.046 2.021 L 16.046 3.493 C 16.046 4.461 15.259 5.249 14.291 5.249 C 13.323 5.249 12.535 4.461 12.535 3.493 L 12.535 2.021 L 7.465 2.021 L 7.465 3.493 C 7.465 4.461 6.677 5.249 5.709 5.249 C 4.741 5.249 3.954 4.461 3.954 3.493 L 3.954 2.021 L 1.099 2.021 C 0.512 2.021 0.036 2.498 0.036 3.085 L 0.036 7.447 L 19.964 7.447 L 19.964 3.085 C 19.964 2.498 19.488 2.021 18.901 2.021 Z M 0.036 18.759 C 0.036 19.346 0.512 19.823 1.099 19.823 L 18.901 19.823 C 19.488 19.823 19.964 19.346 19.964 18.759 L 19.964 8.298 L 0.036 8.298 Z M 14.763 10.824 L 17.485 10.824 L 17.485 13.546 L 14.763 13.546 Z M 14.763 14.707 L 17.485 14.707 L 17.485 17.429 L 14.763 17.429 Z M 10.68 10.824 L 13.402 10.824 L 13.402 13.546 L 10.68 13.546 Z M 10.68 14.707 L 13.402 14.707 L 13.402 17.429 L 10.68 17.429 Z M 6.598 10.824 L 9.32 10.824 L 9.32 13.546 L 6.598 13.546 Z M 6.598 14.707 L 9.32 14.707 L 9.32 17.429 L 6.598 17.429 Z M 2.515 10.824 L 5.237 10.824 L 5.237 13.546 L 2.515 13.546 Z M 2.515 14.707 L 5.237 14.707 L 5.237 17.429 L 2.515 17.429 Z" fill="rgb(39, 117, 255)"></path></svg>