<svg xmlns="http://www.w3.org/2000/svg" width="26" height="30"><path d="M 22.435 17.611 C 22.49 17.54 27.81 10.452 24.669 4.923 C 20.92 -1.684 14.485 0.413 12.863 1.077 C 13.715 1.418 15.963 2.478 16.671 4.445 C 16.687 4.488 16.685 4.535 16.666 4.576 C 16.647 4.618 16.611 4.649 16.568 4.664 C 16.549 4.667 16.529 4.667 16.51 4.664 C 16.438 4.664 16.374 4.619 16.349 4.551 C 16.312 4.445 16.264 4.347 16.219 4.248 C 15.494 2.717 13.725 1.807 12.884 1.449 C 12.733 1.38 12.579 1.32 12.422 1.268 C 6.948 -0.528 2.658 1.268 0.92 6.041 C -1.403 12.436 3.958 17.468 3.999 17.519 C 4.033 17.548 4.053 17.591 4.054 17.635 C 4.054 17.635 4.112 18.825 4.803 24.201 C 5.166 27.007 6.692 29.035 8.016 29.584 C 8.364 29.775 8.788 29.766 9.127 29.56 C 9.5 29.274 9.641 28.612 9.521 27.695 C 9.117 24.648 9.887 21.269 11.351 19.66 C 11.807 19.108 12.478 18.777 13.195 18.75 L 13.263 18.75 C 16.575 18.866 16.572 22.711 16.565 25.803 C 16.565 27.89 16.565 29.693 17.523 29.737 C 18.207 29.772 18.891 29.397 19.606 28.633 C 21.412 26.693 22.952 22.323 22.401 17.724 C 22.399 17.684 22.411 17.644 22.435 17.611 Z M 8.32 2.925 L 8.163 2.925 C 7.311 2.966 3.277 3.447 2.935 8.816 L 2.935 9.034 C 2.936 9.084 2.914 9.133 2.876 9.165 C 2.838 9.198 2.787 9.213 2.737 9.205 C 2.643 9.197 2.571 9.118 2.573 9.024 C 2.86 2.588 8.258 2.594 8.317 2.588 C 8.411 2.588 8.488 2.664 8.488 2.758 C 8.488 2.852 8.411 2.928 8.317 2.928 Z" fill="rgba(46, 64, 99, 1.00)"></path></svg>